<svg xmlns="http://www.w3.org/2000/svg" xmlns:xlink="http://www.w3.org/1999/xlink" width="903" height="1083" viewBox="0 0 903 1083"><defs><style>.a{fill:url(#a);}.b,.h,.k{fill:#fff;}.c{fill:url(#b);}.d{clip-path:url(#c);}.e{opacity:0.201;}.f,.i{opacity:0.7;}.f{fill:url(#d);}.g,.j,.n{fill:none;}.g{stroke:#a3a0fb;}.g,.h,.j,.k{stroke-width:2px;}.h{stroke:#a4a1fb;}.i{fill:url(#f);}.j{stroke:#54d8ff;}.k{stroke:#55d8fe;}.l{opacity:0.299;}.m{stroke:none;}</style><linearGradient id="a" y1="1" x2="1" gradientUnits="objectBoundingBox"><stop offset="0" stop-color="#5c6ccd"/><stop offset="1" stop-color="#5753b5"/></linearGradient><linearGradient id="b" x1="0.897" y1="0.14" x2="0.206" y2="0.877" gradientUnits="objectBoundingBox"><stop offset="0" stop-color="#0095c5"/><stop offset="1" stop-color="#5a55aa"/></linearGradient><clipPath id="c"><rect class="a" width="902.5" height="1083"/></clipPath><linearGradient id="d" x1="0.5" x2="0.5" y2="1" gradientUnits="objectBoundingBox"><stop offset="0" stop-color="#a7a7ff"/><stop offset="1" stop-color="#fff" stop-opacity="0"/></linearGradient><linearGradient id="f" x1="0.5" x2="0.5" y2="1" gradientUnits="objectBoundingBox"><stop offset="0" stop-color="#54d8ff"/><stop offset="1" stop-color="#fff" stop-opacity="0"/></linearGradient></defs><rect class="b" width="902.5" height="1083" transform="translate(0.5)"/><rect class="c" width="902.5" height="1083"/><g class="d"><g class="e" transform="translate(-618.497 320.538)"><path class="f" d="M330,824.276V578.152S678.031,739.588,956.109,749.727c300.69-9.826,352.757-78.915,586.972-171.575,200.147-77.233,399.747-98.43,591.327-92.973s357.63,88.889,583.931,97.438c399.22-34.446,602.9-208.6,629.875-281.341V915.811L330,916.085Z" transform="translate(-330 -298.407)"/><path class="g" d="M313,525.629S658.784,690.914,932.186,694.472s378.416-85.293,587.823-168.623,408.483-97.552,591.763-94.75,361.452,90.125,586.647,94.76,589.514-150.946,630.026-280.618" transform="translate(-310.23 -245.24)"/><g class="h" transform="translate(1196.512 267.929)"><circle class="m" cx="13.83" cy="13.83" r="13.83"/><circle class="n" cx="13.83" cy="13.83" r="12.83"/></g><g class="h" transform="translate(796.603 421.044)"><circle class="m" cx="13.83" cy="13.83" r="13.83"/><circle class="n" cx="13.83" cy="13.83" r="12.83"/></g></g><g class="e" transform="translate(-761.769 583.391)"><path class="f" d="M330,824.276V578.152S678.031,739.588,956.109,749.727c300.69-9.826,352.757-78.915,586.972-171.575,200.147-77.233,399.747-98.43,591.327-92.973s357.63,88.889,583.931,97.438c399.22-34.446,602.9-208.6,629.875-281.341V915.811L330,916.085Z" transform="translate(-330 -298.407)"/><path class="g" d="M313,525.629S658.784,690.914,932.186,694.472s378.416-85.293,587.823-168.623,408.483-97.552,591.763-94.75,361.452,90.125,586.647,94.76,589.514-150.946,630.026-280.618" transform="translate(-310.23 -245.24)"/><g class="h" transform="translate(1196.512 267.929)"><circle class="m" cx="13.83" cy="13.83" r="13.83"/><circle class="n" cx="13.83" cy="13.83" r="12.83"/></g></g><g class="e" transform="translate(-794.538 345.697)"><path class="i" d="M330,730.262V354.422S669.686,728.086,948.723,742.148c311.336-3.167,313.888-193.983,587.472-298.443,229.036-82.021,403.8,141.717,595.382,147.174s323.8-153.341,585.17-164.374c338.639,16.614,610.373,228.775,631.459,240.182V821.8L330,822.071Z" transform="translate(-328.129 -354.422)"/><path class="j" d="M312.953,279.164s350.258,380.549,624,384.108,367.35-224.219,587.143-301.011,410.464,146.476,593.97,149.278,359.2-167.736,584.675-163.1S3186,482.075,3328.517,583.836" transform="translate(-312.953 -275.98)"/><g class="k" transform="translate(2369.402 58.11)"><circle class="m" cx="13.83" cy="13.83" r="13.83"/><circle class="n" cx="13.83" cy="13.83" r="12.83"/></g><g class="k" transform="translate(1287.349 57.177)"><circle class="m" cx="13.83" cy="13.83" r="13.83"/><circle class="n" cx="13.83" cy="13.83" r="12.83"/></g></g><g class="e" transform="translate(-1136.048 470.171)"><path class="i" d="M330,730.262V354.422S669.686,728.086,948.723,742.148c311.336-3.167,313.888-193.983,587.472-298.443,229.036-82.021,403.8,141.717,595.382,147.174s323.8-153.341,585.17-164.374c338.639,16.614,610.373,228.775,631.459,240.182V821.8L330,822.071Z" transform="translate(-329.257 -354.422)"/><path class="j" d="M312.953,279.164s350.258,380.549,624,384.108,367.35-224.219,587.143-301.011,410.464,146.476,593.97,149.278,359.2-167.736,584.675-163.1S3186,482.075,3328.517,583.836" transform="translate(-312.953 -275.98)"/><g class="k" transform="translate(1903.159 205.687)"><circle class="m" cx="13.83" cy="13.83" r="13.83"/><circle class="n" cx="13.83" cy="13.83" r="12.83"/></g><g class="k" transform="translate(1194.463 71.955)"><circle class="m" cx="13.83" cy="13.83" r="13.83"/><circle class="n" cx="13.83" cy="13.83" r="12.83"/></g></g></g><g class="l" transform="translate(-149.044 -14.191)"><path class="b" d="M539.5,434.5a264.906,264.906,0,0,0-26.558-45.684c-1.636-3.919-6.422-10.42-15.358-20.253-41.617-45.785-80.978-65.949-103.1-74.4-6.4-3.125-14.207-6.455-18.424-5.636V575.743h-.067V676.107h47.4V625.329q.171-14.427.371-28.854c.072-5.489,2.054-6.9,7.561-6.909q34.6-.069,69.2-.424c4.483-.038,6.566,1.68,6.545,6.254a30.837,30.837,0,0,1-.81,6.476c-2.252,10.147-4.095,20.417-7.013,30.37-6.3,21.492-15.1,41.732-29.932,59.107-13.536,15.859-28.776,29.367-47.04,39.648-14.063,7.913-28.713,13.894-44.632,16.657a8.4,8.4,0,0,0-1.586.474v52.438a19.148,19.148,0,0,0,6.718-.739c15.379-2.566,55.609-14.108,104.247-65.983l-.236.143A270.694,270.694,0,0,0,541.026,653.7C571.034,584.673,570.464,503.1,539.5,434.5ZM506.624,547.019q-17.18-.088-34.364-.227c-1.177-.009-2.357,0-3.538,0V546.7c-12.465,0-24.935.08-37.4-.029-7.679-.067-8.868-2.18-8.725-9.887.358-19.274.2-38.56.186-57.843-.025-30.7-.156-61.4-.051-92.111.008-2.247,1.581-4.494,2.425-6.741a49.911,49.911,0,0,1,6.144,2.642c12.988,7.732,23.708,18.1,34.123,28.9,11.559,12,20.03,25.868,27.705,40.539,12.36,23.617,17.58,49.073,21.354,75.009a130.585,130.585,0,0,1,1.058,13.533C515.716,545.138,512.9,547.053,506.624,547.019Z" transform="translate(273.911 8.698)"/><path class="b" d="M466.1,339.23v-6.787a21.825,21.825,0,0,0,.266-3.345c.11-10.065-.114-20.143.417-30.183a10.309,10.309,0,0,0-.683-4.751v-1.876h-1.354a8.341,8.341,0,0,0-4.284-1.977c-6.945-1.335-13.907-2.875-20.937-3.45-29.2-2.388-58.219-1.591-86.949,5.016-6.1,1.4-9.315,2.124-11.019,3.958V812.1a7.445,7.445,0,0,0,2.438,1.041c11.149,2.548,22.244,5.88,33.558,7.06a305.873,305.873,0,0,0,69.132-.571,54.54,54.54,0,0,0,15.333-4.73c1.91-.861,3.829-4.021,3.913-6.2.477-11.891.409-23.8.477-35.71.025-5.305-1.29-6.464-6.692-6.011a27.449,27.449,0,0,0-4.483.747c-18.808,4.865-37.451,2.606-56.077-1.18-4.192-.848-5.693-2.984-5.621-7.37.316-18.615.342-37.234.333-55.853-.013-33.226-.135-66.451-.19-99.677-.008-5.242,1.957-7.387,6.709-7.383q29.325.038,58.641.134c5.8.017,7.607-2.027,7.561-8-.122-16.94-.257-33.88-.08-50.82.08-7.778-.738-9.007-8.67-9q-16.427.013-32.854.126c-8.767.071-17.53.369-26.293.332a11.093,11.093,0,0,1-5.549-1.083V339.23Z" transform="translate(155.014)"/><path class="b" d="M469.739,289.722c-4.415,1.588-8.607,3.8-13.005,5.444-17.15,6.4-32.373,16.269-47.407,26.388A155.6,155.6,0,0,0,390.4,336.5c-10.445,9.691-21.363,19.129-30.315,30.106-9.8,12.005-17.724,25.548-26.229,38.574-11.095,17-18.428,35.81-24.378,54.994-4.4,14.169-6.865,28.95-9.927,43.514-7.228,34.424-3.243,68.541,4.12,102.309a255.407,255.407,0,0,0,20.115,57.321c8.324,17.1,17.854,33.516,29.89,48.277,13.81,16.937,28.262,33.407,46.458,45.883,13.148,9.01,26.6,17.651,40.444,25.548,8.7,4.961,18.512,7.952,27.541,12.4,2.973,1.462,4.849,1.937,6.115,1.092V745.64a227.541,227.541,0,0,1-54.879-42.85q-5.219-4.921-10.315-9.951a105.678,105.678,0,0,1-16.319-20.99c-8.927-15.063-16.695-30.627-22.021-47.4a238.544,238.544,0,0,1-15.113-83.755c0-88.594,48.01-165.587,118.647-204.976V289.5C473.167,288.957,471.708,289.016,469.739,289.722Z" transform="translate(0 11.004)"/></g></svg>